<?xml version="1.0" standalone="no"?>
<!DOCTYPE svg PUBLIC "-//W3C//DTD SVG 20010904//EN"
 "http://www.w3.org/TR/2001/REC-SVG-20010904/DTD/svg10.dtd">
<svg version="1.0" xmlns="http://www.w3.org/2000/svg"
 width="640.000000pt" height="640.000000pt" viewBox="0 0 640.000000 640.000000"
 preserveAspectRatio="xMidYMid meet">
<metadata>
Created by potrace 1.11, written by Peter Selinger 2001-2013
</metadata>
<g transform="translate(0.000000,640.000000) scale(0.100000,-0.100000)"
fill="#000000" stroke="none">
<path d="M2990 6394 c-19 -2 -84 -9 -145 -15 -202 -19 -464 -78 -681 -152
-337 -116 -689 -310 -979 -543 -523 -420 -928 -1056 -1089 -1709 -72 -293 -90
-453 -90 -775 0 -330 19 -490 95 -790 108 -432 325 -864 615 -1225 419 -521
1045 -922 1694 -1084 301 -76 461 -95 790 -95 329 0 489 19 790 95 432 108
864 325 1225 615 521 419 922 1045 1084 1694 76 301 95 461 95 790 0 329 -19
489 -95 790 -108 432 -325 864 -615 1225 -49 61 -150 171 -224 245 -501 503
-1155 824 -1861 915 -116 15 -530 28 -609 19z m600 -514 c490 -73 933 -266
1320 -576 109 -88 306 -285 394 -394 806 -1007 806 -2417 -1 -3420 -96 -119
-279 -301 -403 -400 -394 -314 -834 -502 -1345 -576 -167 -25 -543 -25 -710 0
-614 89 -1144 352 -1565 775 -414 417 -670 929 -762 1526 -31 202 -31 570 0
770 66 422 202 778 427 1115 114 171 198 274 340 415 453 453 1028 722 1682
785 141 14 470 3 623 -20z"/>
<path d="M4565 4514 c-16 -8 -411 -396 -877 -862 l-848 -847 -492 492 c-340
339 -505 497 -530 508 -91 37 -138 13 -305 -157 -72 -73 -137 -146 -142 -161
-17 -43 -13 -104 8 -145 11 -20 341 -358 740 -757 l721 -720 1086 1085 c635
634 1092 1098 1100 1117 20 45 17 107 -5 151 -24 47 -267 287 -304 301 -41 16
-117 13 -152 -5z"/>
</g>
</svg>
